<svg id="christening" enable-background="new 0 0 300 300" height="512" viewBox="0 0 300 300" width="512" xmlns="http://www.w3.org/2000/svg"><path d="m142.176 48.031h2.965v20c0 2.209 1.791 4 4 4s4-1.791 4-4v-20h2.965c2.209 0 4-1.791 4-4s-1.791-4-4-4h-2.965v-4c0-2.209-1.791-4-4-4s-4 1.791-4 4v4h-2.965c-2.209 0-4 1.791-4 4s1.791 4 4 4z"/><path d="m95.592 120.928c11.737 0 21.286-9.549 21.286-21.285 0-11.737-9.549-21.286-21.286-21.286s-21.286 9.549-21.286 21.286c-.001 11.736 9.548 21.285 21.286 21.285zm0-34.571c7.326 0 13.286 5.96 13.286 13.286 0 7.325-5.96 13.285-13.286 13.285s-13.286-5.96-13.286-13.285c-.001-7.326 5.959-13.286 13.286-13.286z"/><path d="m201.105 120.928c11.737 0 21.286-9.549 21.286-21.285 0-11.737-9.549-21.286-21.286-21.286s-21.286 9.549-21.286 21.286c.001 11.736 9.549 21.285 21.286 21.285zm0-34.571c7.326 0 13.286 5.96 13.286 13.286 0 7.325-5.96 13.285-13.286 13.285s-13.286-5.96-13.286-13.285c.001-7.326 5.961-13.286 13.286-13.286z"/><path d="m242.609 227.075-10.155-27.36h.688c2.209 0 4-1.791 4-4v-34.229c0-12.507-5.216-24.136-14.311-31.903-4.191-3.58-9.453-5.552-14.816-5.552h-13.747c-5.364 0-10.625 1.972-14.816 5.552-2.379 2.032-4.486 4.334-6.31 6.842v-6.393c0-8.625-4.991-16.102-12.234-19.706 3.621-2.882 5.952-7.317 5.952-12.294 0-8.667-7.051-15.718-15.718-15.718s-15.718 7.051-15.718 15.718c0 4.977 2.332 9.412 5.953 12.294-7.243 3.604-12.234 11.081-12.234 19.706v8.094l-11.263-9.429c-3.611-3.024-8.156-4.689-12.798-4.689h-15.61c-4.643 0-9.188 1.665-12.799 4.689v-.001l-12.194 10.21c-4.662 3.902-7.335 9.667-7.335 15.815v30.934c0 6.756 3.666 12.871 9.567 15.959l2.175 1.138v37.716c0 15.165 12.619 27.503 28.129 27.503s28.129-12.338 28.129-27.503v-37.442l2.699-1.412c5.902-3.088 9.568-9.203 9.568-15.959v-22.453c3.767 3.019 8.541 4.831 13.733 4.831 5.314 0 10.194-1.894 14-5.042v32.726c0 2.209 1.791 4 4 4h2.207l-10.155 27.36c-.456 1.228-.282 2.601.466 3.676s1.974 1.716 3.284 1.716h12.199v9.431c0 13.313 10.766 24.146 24 24.146s24-10.832 24-24.146v-9.431h13.717c1.31 0 2.536-.641 3.284-1.716.744-1.078.918-2.451.463-3.678zm-91.468-136.762c4.255 0 7.718 3.462 7.718 7.718s-3.462 7.718-7.718 7.718-7.718-3.462-7.718-7.718 3.462-7.718 7.718-7.718zm0 25.718c5.676 0 10.563 3.401 12.759 8.267l-26.759 16.555v-10.822c0-7.72 6.281-14 14-14zm-34 124.435c0 10.754-9.03 19.503-20.129 19.503s-20.129-8.749-20.129-19.503v-33.53l9.503 4.973c.572.3 1.208.456 1.854.456h18.067c.646 0 1.282-.156 1.854-.456l8.979-4.699v33.256zm12.267-54.813c0 3.769-2.022 7.168-5.277 8.871l-3.632 1.901-3.358-16.79v-23.604c0-2.209-1.791-4-4-4s-4 1.791-4 4v24c0 .264.026.526.078.784l3.895 19.474-7.789 4.076h-16.1l-8.03-4.202 3.87-19.348c.052-.258.078-.521.078-.784v-24c0-2.209-1.791-4-4-4s-4 1.791-4 4v23.604l-3.333 16.664-3.391-1.774c-3.254-1.703-5.276-5.103-5.276-8.871v-30.934c0-3.774 1.629-7.303 4.471-9.681l12.194-10.21c0-.001 0-.001 0-.001 2.174-1.82 4.895-2.822 7.663-2.822h15.61c2.768 0 5.489 1.002 7.663 2.823l12.194 10.21c2.842 2.379 4.471 5.907 4.471 9.681v30.933zm21.733-25.622c-6.372 0-11.752-4.282-13.441-10.117l27.441-16.977v13.094c0 7.719-6.28 14-14 14zm66 81.866c0 8.902-7.178 16.146-16 16.146s-16-7.243-16-16.146v-9.431h32zm-46.447-17.431 20.115-54.195c.769-2.07-.287-4.373-2.358-5.142-2.072-.768-4.374.287-5.142 2.358l-8.992 24.227h-1.176v-30.229c0-10.163 4.194-19.575 11.506-25.821 2.743-2.343 6.16-3.634 9.62-3.634h13.747c3.46 0 6.877 1.291 9.62 3.634 7.313 6.247 11.507 15.658 11.507 25.821v29.305l-8.649-23.303c-.77-2.071-3.071-3.126-5.142-2.358-2.071.769-3.126 3.071-2.358 5.142l20.115 54.195z"/></svg>