<svg height="512pt" viewBox="-54 0 512 512" width="512pt" xmlns="http://www.w3.org/2000/svg"><path d="m150 359.671875c2.628906 0 5.210938-1.070313 7.070312-2.933594 1.859376-1.867187 2.929688-4.4375 2.929688-7.066406 0-2.640625-1.070312-5.210937-2.929688-7.070313-1.859374-1.871093-4.441406-2.929687-7.070312-2.929687s-5.210938 1.058594-7.070312 2.929687c-1.859376 1.859376-2.929688 4.429688-2.929688 7.070313 0 2.628906 1.070312 5.199219 2.929688 7.066406 1.859374 1.863281 4.441406 2.933594 7.070312 2.933594zm0 0"/><path d="m394 106h-130v-96c0-5.523438-4.476562-10-10-10h-104c-5.523438 0-10 4.476562-10 10v96h-130c-5.523438 0-10 4.476562-10 10v104c0 5.523438 4.476562 10 10 10h130v78c0 5.523438 4.476562 10 10 10s10-4.476562 10-10v-88c0-5.523438-4.476562-10-10-10h-130v-84h130c5.523438 0 10-4.476562 10-10v-96h84v96c0 5.523438 4.476562 10 10 10h130v28h-82.667969c-5.519531 0-10 4.476562-10 10s4.480469 10 10 10h82.667969v36h-130c-5.523438 0-10 4.476562-10 10v272h-84v-101.335938c0-5.519531-4.476562-10-10-10s-10 4.480469-10 10v111.335938c0 5.523438 4.476562 10 10 10h104c5.523438 0 10-4.476562 10-10v-272h130c5.523438 0 10-4.476562 10-10v-104c0-5.523438-4.476562-10-10-10zm0 0"/><path d="m272.398438 171.070312c1.871093-1.859374 2.929687-4.441406 2.929687-7.070312s-1.058594-5.210938-2.929687-7.070312c-1.859376-1.859376-4.4375-2.929688-7.070313-2.929688-2.628906 0-5.207031 1.070312-7.066406 2.929688-1.863281 1.859374-2.933594 4.441406-2.933594 7.070312s1.070313 5.210938 2.933594 7.070312c1.867187 1.859376 4.4375 2.929688 7.066406 2.929688 2.632813 0 5.210937-1.070312 7.070313-2.929688zm0 0"/></svg>