<svg id="preaching" enable-background="new 0 0 300 300" height="512" viewBox="0 0 300 300" width="512" xmlns="http://www.w3.org/2000/svg"><path d="m212 260h-20v-152h16c2.209 0 4-1.791 4-4s-1.791-4-4-4h-68v-21.436c0-11.428 7.427-21.555 18.192-25.075 2.486 3.907 6.844 6.511 11.808 6.511 7.72 0 14-6.28 14-14s-6.28-14-14-14c-7.641 0-13.861 6.155-13.988 13.766-14.201 4.492-24.012 17.797-24.012 32.798v21.436h-72c-2.209 0-4 1.791-4 4s1.791 4 4 4h16v152h-20c-2.209 0-4 1.791-4 4s1.791 4 4 4h156c2.209 0 4-1.791 4-4s-1.791-4-4-4zm-42-220c3.309 0 6 2.691 6 6s-2.691 6-6 6-6-2.691-6-6 2.691-6 6-6zm-86 68h100v152h-100z"/><path d="m156 148h-16v-16c0-2.209-1.791-4-4-4s-4 1.791-4 4v16h-16c-2.209 0-4 1.791-4 4s1.791 4 4 4h16v48c0 2.209 1.791 4 4 4s4-1.791 4-4v-48h16c2.209 0 4-1.791 4-4s-1.791-4-4-4z"/><path d="m244 260h-20c-2.209 0-4 1.791-4 4s1.791 4 4 4h20c2.209 0 4-1.791 4-4s-1.791-4-4-4z"/></svg>