<svg id="prayer" enable-background="new 0 0 300 300" height="512" viewBox="0 0 300 300" width="512" xmlns="http://www.w3.org/2000/svg"><path d="m244.321 242.301-29.756-25.505c-2.409-2.065-4.028-8.508-4.028-16.034v-19.082c0-10.541-1.961-18.32-4.231-27.329-.562-2.225-1.144-4.536-1.724-6.999l-14.584-61.981c-1.626-6.916-7.724-11.746-14.829-11.746-4.215 0-8.278 1.769-11.15 4.853-2.871 3.084-4.346 7.264-4.046 11.467l4.069 56.973c-1.085.067-2.165.273-3.211.622-5.806 1.935-9.393 7.737-8.528 13.798l5.622 39.352c2.604 18.229 9.736 35.711 20.624 50.558l12.774 17.419c.772 1.054 1.983 1.635 3.228 1.635.546 0 1.099-.112 1.623-.345l47.169-20.964c1.254-.557 2.135-1.719 2.333-3.077s-.313-2.722-1.355-3.615zm-48.452 19.037-10.869-14.821c-10.112-13.79-16.736-30.028-19.155-46.959l-5.622-39.351c-.318-2.23 1.001-4.365 3.138-5.077.487-.163.986-.243 1.482-.243.77 0 1.532.194 2.231.579 1.15.631 1.959 1.68 2.276 2.953l8.215 32.859c.537 2.143 2.71 3.446 4.851 2.91 2.144-.536 3.446-2.708 2.911-4.851l-8.215-32.858c-.727-2.907-2.473-5.461-4.881-7.2l-4.278-59.903c-.146-2.025.537-3.959 1.921-5.445s3.264-2.305 5.295-2.305c3.374 0 6.27 2.293 7.042 5.578l14.584 61.982c.59 2.505 1.183 4.858 1.753 7.122 2.229 8.842 3.989 15.825 3.989 25.373v19.082c0 4.889.665 16.831 6.821 22.108l24.948 21.384z"/><path d="m139.17 147.541c-1.046-.349-2.126-.555-3.211-.622l4.069-56.973c.3-4.203-1.175-8.383-4.046-11.467-2.872-3.084-6.937-4.854-11.15-4.854-7.104 0-13.203 4.83-14.83 11.746l-14.584 61.982c-2.952 12.545-4.448 25.44-4.448 38.327v19.082c0 4.633-2.018 9.019-5.535 12.034l-29.756 25.505c-1.042.893-1.553 2.258-1.354 3.616s1.079 2.52 2.333 3.077l47.17 20.964c.525.233 1.077.345 1.623.345 1.244 0 2.455-.581 3.228-1.635l12.773-17.419c10.889-14.848 18.021-32.331 20.625-50.558l5.621-39.351c.864-6.061-2.721-11.864-8.528-13.799zm.607 12.666-5.621 39.351c-2.419 16.93-9.043 33.168-19.156 46.959l-10.868 14.821-38.438-17.083 24.948-21.384c5.293-4.537 8.328-11.137 8.328-18.108v-19.083c0-12.271 1.425-24.55 4.235-36.495l14.584-61.981c.772-3.284 3.669-5.578 7.043-5.578 2.03 0 3.911.818 5.295 2.305s2.066 3.42 1.921 5.445l-4.278 59.903c-2.408 1.738-4.154 4.292-4.882 7.199l-8.214 32.859c-.535 2.144.768 4.315 2.911 4.851 2.137.535 4.313-.767 4.851-2.91l8.214-32.858c.318-1.273 1.127-2.322 2.277-2.953 1.149-.633 2.47-.751 3.714-.335 2.135.711 3.455 2.845 3.136 5.075z"/><path d="m154.537 53.698v-20c0-2.209-1.791-4-4-4s-4 1.791-4 4v20c0 2.209 1.791 4 4 4s4-1.792 4-4z"/><path d="m165.15 55.538c1.023 0 2.047-.391 2.828-1.171l11.151-11.15c1.562-1.562 1.562-4.095 0-5.657-1.561-1.562-4.094-1.562-5.656 0l-11.151 11.15c-1.562 1.562-1.562 4.095 0 5.657.781.781 1.805 1.171 2.828 1.171z"/><path d="m131.562 54.367c.78.781 1.805 1.171 2.828 1.171s2.048-.391 2.828-1.171c1.562-1.562 1.562-4.095 0-5.657l-11.15-11.15c-1.561-1.562-4.096-1.562-5.656 0-1.562 1.562-1.562 4.095 0 5.657z"/></svg>