<svg id="preaching_x5F_church" enable-background="new 0 0 300 300" height="512" viewBox="0 0 300 300" width="512" xmlns="http://www.w3.org/2000/svg"><path d="m138 207.806h8v32c0 2.209 1.791 4 4 4s4-1.791 4-4v-32h8c2.209 0 4-1.791 4-4s-1.791-4-4-4h-8v-8c0-2.209-1.791-4-4-4s-4 1.791-4 4v8h-8c-2.209 0-4 1.791-4 4s1.791 4 4 4z"/><path d="m226 147.806h-4v-3.023c0-9.029-4.706-17.479-12.319-22.271.202-.871.319-1.774.319-2.706 0-6.617-5.383-12-12-12s-12 5.383-12 12c0 1.588.317 3.101.879 4.489-.586-.318-1.183-.62-1.795-.898l-20.435-9.288v-.53c9.857-4.97 17.402-13.781 20.73-24.384 1.615-.127 3.19-.666 4.714-1.615 2.81-1.75 4.713-4.621 5.091-7.681.376-3.048-.568-6.107-2.59-8.392-1.152-1.303-2.594-2.29-4.185-2.897.001-.254.004-.533.009-.839.005-.364-.055-.712-.142-1.048.206-.487.333-1.009.333-1.551v-5.583c0-13.098-5.932-23.725-16.703-29.923-12.725-7.322-30.462-7.291-43.138.076-9.44 5.486-14.616 14.166-14.572 24.44.006 1.402.021 2.847.035 4.258.024 2.451.048 4.765.023 6.549-.004.279.023.551.074.814-.078.331-.13.671-.12 1.027.02.697.031 1.283.038 1.774-1.442.549-2.758 1.416-3.865 2.563-2.026 2.1-3.085 4.864-2.98 7.785.117 3.274 1.952 6.42 4.911 8.418 1.545 1.042 3.155 1.645 4.817 1.805 2.952 9.861 9.51 18.196 18.22 23.425v1.51l-20.435 9.288c-9.616 4.371-16.03 13.808-16.765 24.409h-24.149c-2.209 0-4 1.791-4 4v20c0 2.209 1.791 4 4 4h8v96c0 2.209 1.791 4 4 4h128c2.209 0 4-1.791 4-4v-96h8c2.209 0 4-1.791 4-4v-20c0-2.21-1.791-4.001-4-4.001zm-12 0h-12.151c-.419-6.046-2.698-11.702-6.352-16.267.808.172 1.645.267 2.503.267 2.782 0 5.34-.96 7.377-2.555 5.328 3.33 8.623 9.228 8.623 15.532zm-16-32c2.206 0 4 1.794 4 4s-1.794 4-4 4-4-1.794-4-4 1.794-4 4-4zm-65.211-79.149c10.157-5.903 24.93-5.927 35.128-.059 5.79 3.332 12.693 10.026 12.693 22.989v3.574c-7.552 5.339-16.002 7.312-23.977 5.562-7.154-1.57-13.08-6.011-16.258-12.183-.586-1.137-1.68-1.926-2.943-2.122-.205-.032-.409-.047-.613-.047-1.056 0-2.078.418-2.834 1.177-2.909 2.921-7.057 4.784-11.729 5.337-.007-.817-.016-1.665-.024-2.529-.014-1.396-.028-2.825-.034-4.211-.041-9.343 5.738-14.667 10.591-17.488zm-8.707 47.385c-.23-1.123-.931-2.092-1.924-2.664-.992-.57-2.183-.689-3.271-.324-.752.252-1.233.267-2.099-.317-.82-.554-1.367-1.367-1.393-2.072-.025-.731.238-1.421.743-1.944.505-.524 1.185-.812 1.912-.812 1.08 0 2.146-.452 2.898-1.227 1.146-1.179 1.354-2.448 1.309-5.773 5.027-.451 9.696-2.024 13.561-4.584 4.52 6.136 11.266 10.494 19.1 12.213 2.482.545 4.99.814 7.503.814 6.174 0 12.362-1.636 18.197-4.795.185.868.514 1.536 1.116 2.148.752.762 1.805 1.205 2.875 1.205 1.042 0 1.695.563 1.992.898.296.334.772 1.054.643 2.112-.082.665-.624 1.399-1.382 1.871-.865.539-1.413.506-2.125.255-1.078-.381-2.275-.281-3.278.278-1.002.559-1.717 1.521-1.961 2.642-2.494 11.44-10.95 20.785-22.067 24.389l-1.183.383c-2.994.972-6.173 1.013-8.949.119-11.314-3.643-19.827-13.151-22.217-24.815zm32.51 32.623c-.409 3.277-3.207 5.822-6.592 5.822-3.509 0-6.385-2.735-6.626-6.185.16.054.314.117.475.169 2.15.692 4.388 1.038 6.652 1.038 2.023 0 4.067-.293 6.091-.844zm-38.365 14.015 18.609-8.458c2.378 4.883 7.377 8.265 13.165 8.265s10.787-3.382 13.165-8.265l18.609 8.458c6.769 3.077 11.329 9.662 12.041 17.126h-87.628c.71-7.464 5.27-14.05 12.039-17.126zm91.773 137.126h-120v-92h120zm12-100h-144v-12h144z"/></svg>